<svg xmlns="http://www.w3.org/2000/svg" width="24" height="24" viewBox="0 0 24 24" fill="none">
  <path fill-rule="evenodd" clip-rule="evenodd" d="M6 13.4142V15C6 15.5523 6.44772 16 7 16H8.58579C8.851 16 9.10536 15.8946 9.29289 15.7071L17.2929 7.70711C17.6834 7.31658 17.6834 6.68342 17.2929 6.29289L15.7071 4.70711C15.3166 4.31658 14.6834 4.31658 14.2929 4.70711L6.29289 12.7071C6.10536 12.8946 6 13.149 6 13.4142ZM4 19C3.44772 19 3 19.4477 3 20C3 20.5523 3.44772 21 4 21H20C20.5523 21 21 20.5523 21 20C21 19.4477 20.5523 19 20 19H4Z" fill="currentColor"/>
</svg>