<svg width="60" height="50" viewBox="0 0 60 50" fill="none" xmlns="http://www.w3.org/2000/svg">
<path d="M14.5834 4.16675V12.5001M14.5834 33.3334V41.6668M35.4167 8.33342V16.6667M35.4167 37.5001V45.8334M4.16669 12.5001H25M4.16669 33.3334H25M25 16.6667H45.8334M25 37.5001H45.8334M25 41.6668V7.50008C25 6.33331 25 5.74992 24.773 5.30427C24.5732 4.91226 24.2545 4.59355 23.8625 4.39382C23.4169 4.16675 22.8335 4.16675 21.6667 4.16675H14.1667C10.6664 4.16675 8.9162 4.16675 7.57925 4.84796C6.40323 5.44717 5.4471 6.40329 4.8479 7.57931C4.16669 8.91626 4.16669 10.6664 4.16669 14.1667V31.6667C4.16669 35.1671 4.16669 36.9172 4.8479 38.2542C5.4471 39.4302 6.40323 40.3863 7.57925 40.9855C8.9162 41.6668 10.6664 41.6668 14.1667 41.6668H25ZM25 8.33342H35.8334C39.3337 8.33342 41.0838 8.33341 42.4208 9.01462C43.5968 9.61383 44.5529 10.57 45.1521 11.746C45.8334 13.0829 45.8334 14.8331 45.8334 18.3334V35.8334C45.8334 39.3337 45.8334 41.0839 45.1521 42.4209C44.5529 43.5969 43.5968 44.553 42.4208 45.1522C41.0838 45.8334 39.3337 45.8334 35.8334 45.8334H28.3334C27.1666 45.8334 26.5832 45.8334 26.1375 45.6063C25.7455 45.4066 25.4268 45.0879 25.2271 44.6959C25 44.2502 25 43.6669 25 42.5001V8.33342Z" stroke="currentColor" stroke-width="2" stroke-linecap="round" stroke-linejoin="round"/>
<path d="M56.8062 6.23838C54.5604 12.3184 48.9312 20.5834 44.2208 24.6842L41.3479 27.1859C40.9833 27.4709 40.6187 27.7242 40.2104 27.8984C40.2104 27.6134 40.1958 27.2967 40.1521 26.9959C39.9917 25.6659 39.4375 24.4309 38.4604 23.3701C37.4687 22.2934 36.2583 21.66 35.0187 21.4859C34.7271 21.47 34.4354 21.4384 34.1437 21.4701C34.3042 20.9792 34.5521 20.5201 34.8583 20.1401L37.1333 17.0209C40.8958 11.9067 48.5375 5.76338 54.1229 3.34088C54.9833 2.99255 55.8146 3.24588 56.3396 3.83172C56.8937 4.41755 57.1562 5.32005 56.8062 6.23838Z" stroke="currentColor" stroke-width="1.5" stroke-linecap="round" stroke-linejoin="round"/>
<path d="M40.2104 27.8983C40.2104 29.6399 39.5979 31.3024 38.4458 32.5691C37.5562 33.5349 36.3458 34.1999 34.9021 34.4058L31.3146 34.8333C29.3604 35.0708 27.6833 33.2658 27.9167 31.1124L28.3104 27.2174C28.6604 23.7499 31.3292 21.5333 34.1583 21.4699C34.45 21.4541 34.7562 21.4699 35.0333 21.4858C36.2729 21.6599 37.4833 22.2774 38.475 23.3699C39.4521 24.4308 40.0062 25.6658 40.1667 26.9958C40.1812 27.2966 40.2104 27.5974 40.2104 27.8983Z" stroke="currentColor" stroke-width="1.5" stroke-linecap="round" stroke-linejoin="round"/>
<path d="M45.7667 22.9108C45.7667 18.7783 42.675 15.4216 38.8688 15.4216" stroke="currentColor" stroke-width="1.5" stroke-linecap="round" stroke-linejoin="round"/>
</svg>
