<svg xmlns="http://www.w3.org/2000/svg" width="50" height="50" viewBox="0 0 50 50" fill="none">
  <path d="M35.4167 6.25L25 14.5833L14.5834 6.25M14.1667 43.75H35.8334C39.3337 43.75 41.0838 43.75 42.4208 43.0688C43.5968 42.4696 44.5529 41.5135 45.1521 40.3374C45.8334 39.0005 45.8334 37.2503 45.8334 33.75V24.5833C45.8334 21.083 45.8334 19.3328 45.1521 17.9959C44.5529 16.8199 43.5968 15.8638 42.4208 15.2645C41.0838 14.5833 39.3337 14.5833 35.8334 14.5833H14.1667C10.6664 14.5833 8.9162 14.5833 7.57925 15.2645C6.40323 15.8638 5.4471 16.8199 4.8479 17.9959C4.16669 19.3328 4.16669 21.083 4.16669 24.5833V33.75C4.16669 37.2503 4.16669 39.0005 4.8479 40.3374C5.4471 41.5135 6.40323 42.4696 7.57925 43.0688C8.9162 43.75 10.6664 43.75 14.1667 43.75Z" stroke="currentColor" stroke-width="2" stroke-linecap="round" stroke-linejoin="round"/>
</svg>