<svg xmlns="http://www.w3.org/2000/svg" width="55" height="55" viewBox="0 0 55 55" fill="none">
  <mask id="path-1-inside-1_205_5096" fill="white">
    <path d="M35.8581 44.0143L30.8358 44.3432L23.964 44.3331L21.9385 44.2363L15.4395 43.5353C13.7734 43.2458 13.7677 42.7039 14.235 41.1905C14.4456 40.5084 14.8242 39.1981 14.9311 38.5493C15.1235 37.3811 15.1925 36.1988 15.2794 35.0196L15.4823 31.7835L15.4932 26.9869C15.3444 27.156 15.0667 27.295 14.8788 27.4268L13.5931 28.334C11.2786 29.8792 8.35938 29.3775 7.23816 26.6916C7.07778 26.3073 7.00189 25.8828 6.81508 25.5112C6.60056 25.0845 6.25246 24.7233 5.99373 24.3233C5.48294 23.5336 5.2513 22.5935 5.26084 21.6612C5.28279 19.5151 6.89694 18.1503 8.35137 16.8264L10.0561 15.2406C11.2344 14.1385 12.4686 12.9719 13.307 11.5817C13.7477 10.8508 14.0287 11.0769 14.6812 10.8382C15.2746 10.621 15.8261 10.2973 16.4265 10.0961C16.8626 9.94993 17.3171 9.87516 17.7649 9.77553L20.8785 8.94586L20.8931 8.94543C21.3475 8.91685 21.5857 9.23009 21.9233 9.47598C24.6827 11.4856 30.1547 11.3862 32.9893 9.51181C33.7706 8.99511 33.6595 8.80615 34.6704 9.13019L35.3821 9.3308C36.3815 9.57127 37.4184 9.7324 38.3988 10.0392C39.0513 10.2434 39.635 10.5831 40.2724 10.8223C40.5207 10.9155 40.7984 10.9085 41.043 10.9957C41.5096 11.162 42.4125 12.6852 42.9365 13.2443L47.0043 17.1553C47.8941 17.9865 48.734 18.7499 49.3055 19.8463C50.0119 21.2015 49.7764 23.1411 48.9496 24.3756L48.396 25.1808C47.8784 25.9481 47.8334 26.7018 47.2601 27.5806L47.1751 27.7062C45.9099 29.4321 43.4097 29.5517 41.6748 28.5222C41.3265 28.3155 41.0296 28.0595 40.7048 27.8232L39.463 26.9217C39.4406 27.134 39.4672 27.3286 39.4684 27.5396L39.4735 28.9141C39.4796 29.1082 39.5168 29.2988 39.5208 29.4931L39.5336 32.5344C39.5415 32.7859 39.5889 33.0327 39.6003 33.2834L39.9078 37.3023C39.9697 37.8556 40.0045 38.6361 40.1917 39.1601L40.9068 41.6153C40.9433 41.7495 41.0145 41.8669 41.0337 42.0071L41.0434 42.0826C41.0778 42.2792 41.0749 42.4527 40.9988 42.6412L40.9851 42.6734C40.6782 43.4107 40.2258 43.3955 39.568 43.5152L35.8581 44.0143ZM19.8402 10.959C18.1086 11.4005 16.6506 11.668 15.0582 12.5051C15.3141 12.9923 15.6006 13.4715 15.815 13.9784L16.4941 15.5494C17.0853 16.9126 17.0779 18.6279 17.0778 20.072L17.0662 32.5353C17.0557 32.827 16.9978 33.1063 16.9815 33.3949L16.9365 34.5661C16.8969 35.2837 16.6909 38.6494 16.4597 39.2001L38.5272 39.2308L38.2217 36.7447L38.0064 33.7168C37.9927 33.4699 37.9204 33.2389 37.9091 32.992L37.8884 19.9487C37.8888 19.2486 37.8409 18.5109 37.94 17.8187C38.1962 16.0288 38.9682 14.0479 39.9534 12.5138C39.5536 12.3273 39.1842 12.1024 38.7724 11.933C37.6745 11.4813 36.3344 11.1691 35.1673 10.9591C35.08 11.1772 35.1103 11.5001 35.073 11.7417C34.7557 13.8029 33.1199 15.5785 31.2438 16.3816C29.8064 16.997 28.0893 17.1609 26.5291 17.0465C23.507 16.8248 20.3607 14.8554 19.9045 11.6571L19.8402 10.959ZM33.4377 11.1585C32.081 12.005 30.4859 12.4573 28.8894 12.5405L27.3426 12.546C24.9385 12.5441 23.5609 12.2307 21.4723 11.1813C21.494 11.5254 21.6105 11.8285 21.7197 12.1522L21.7571 12.2462C21.9132 12.634 22.1162 12.9175 22.3318 13.2655C23.7552 14.9423 25.4464 15.3904 27.5391 15.3895C30.1416 15.3884 33.1847 14.2496 33.4579 11.2813C33.4617 11.2398 33.4596 11.21 33.4486 11.1701L33.4377 11.1585ZM13.953 13.5065C13.4161 14.1884 12.8602 14.7833 12.2442 15.3978L8.19712 19.2262C7.10555 20.3078 6.44464 21.7296 7.23779 23.1934C7.52815 23.7293 7.94629 24.1764 8.2461 24.7083C8.54903 25.2456 8.81468 26.5222 9.29465 26.8576C10.2539 27.7805 11.6019 27.7231 12.68 26.9878L15.092 25.2452C15.7198 24.8189 15.6826 25.0719 15.683 24.3375L15.684 19.8465C15.6831 17.7589 15.6239 16.9527 14.6768 14.9329C14.4516 14.4528 14.2481 13.9491 13.953 13.5065ZM40.9769 13.5218C40.4258 14.4638 39.6362 16.249 39.4373 17.2927C39.2285 18.3879 39.2909 19.5092 39.2907 20.6202L39.2913 24.8217C39.3421 24.8817 39.9668 25.2342 40.0985 25.329L41.2838 26.2024C42.4354 27.0903 44.1059 28.2504 45.5163 27.0436L45.7549 26.8177C46.2519 26.2026 46.3759 25.4998 46.7212 24.8119C46.9793 24.2977 47.3458 23.8652 47.638 23.3755C48.6828 21.6243 47.843 20.2643 46.6026 19.0346L41.884 14.5274L40.9769 13.5218ZM16.0889 40.6458L15.7262 41.9086C16.0222 41.9793 16.3146 41.9954 16.6139 42.0367L21.471 42.5398L22.7724 42.5745C23.0391 42.5893 23.3004 42.6438 23.5657 42.6583L25.9462 42.7078L31.4408 42.656C31.7175 42.6449 31.9904 42.593 32.2669 42.5766L35.2288 42.3659C36.2566 42.2639 37.3007 42.2063 38.3208 42.0386L39.2623 41.8885L38.9509 40.6637L16.0889 40.6458Z"/>
  </mask>
  <path d="M35.8581 44.0143L30.8358 44.3432L23.964 44.3331L21.9385 44.2363L15.4395 43.5353C13.7734 43.2458 13.7677 42.7039 14.235 41.1905C14.4456 40.5084 14.8242 39.1981 14.9311 38.5493C15.1235 37.3811 15.1925 36.1988 15.2794 35.0196L15.4823 31.7835L15.4932 26.9869C15.3444 27.156 15.0667 27.295 14.8788 27.4268L13.5931 28.334C11.2786 29.8792 8.35938 29.3775 7.23816 26.6916C7.07778 26.3073 7.00189 25.8828 6.81508 25.5112C6.60056 25.0845 6.25246 24.7233 5.99373 24.3233C5.48294 23.5336 5.2513 22.5935 5.26084 21.6612C5.28279 19.5151 6.89694 18.1503 8.35137 16.8264L10.0561 15.2406C11.2344 14.1385 12.4686 12.9719 13.307 11.5817C13.7477 10.8508 14.0287 11.0769 14.6812 10.8382C15.2746 10.621 15.8261 10.2973 16.4265 10.0961C16.8626 9.94993 17.3171 9.87516 17.7649 9.77553L20.8785 8.94586L20.8931 8.94543C21.3475 8.91685 21.5857 9.23009 21.9233 9.47598C24.6827 11.4856 30.1547 11.3862 32.9893 9.51181C33.7706 8.99511 33.6595 8.80615 34.6704 9.13019L35.3821 9.3308C36.3815 9.57127 37.4184 9.7324 38.3988 10.0392C39.0513 10.2434 39.635 10.5831 40.2724 10.8223C40.5207 10.9155 40.7984 10.9085 41.043 10.9957C41.5096 11.162 42.4125 12.6852 42.9365 13.2443L47.0043 17.1553C47.8941 17.9865 48.734 18.7499 49.3055 19.8463C50.0119 21.2015 49.7764 23.1411 48.9496 24.3756L48.396 25.1808C47.8784 25.9481 47.8334 26.7018 47.2601 27.5806L47.1751 27.7062C45.9099 29.4321 43.4097 29.5517 41.6748 28.5222C41.3265 28.3155 41.0296 28.0595 40.7048 27.8232L39.463 26.9217C39.4406 27.134 39.4672 27.3286 39.4684 27.5396L39.4735 28.9141C39.4796 29.1082 39.5168 29.2988 39.5208 29.4931L39.5336 32.5344C39.5415 32.7859 39.5889 33.0327 39.6003 33.2834L39.9078 37.3023C39.9697 37.8556 40.0045 38.6361 40.1917 39.1601L40.9068 41.6153C40.9433 41.7495 41.0145 41.8669 41.0337 42.0071L41.0434 42.0826C41.0778 42.2792 41.0749 42.4527 40.9988 42.6412L40.9851 42.6734C40.6782 43.4107 40.2258 43.3955 39.568 43.5152L35.8581 44.0143ZM19.8402 10.959C18.1086 11.4005 16.6506 11.668 15.0582 12.5051C15.3141 12.9923 15.6006 13.4715 15.815 13.9784L16.4941 15.5494C17.0853 16.9126 17.0779 18.6279 17.0778 20.072L17.0662 32.5353C17.0557 32.827 16.9978 33.1063 16.9815 33.3949L16.9365 34.5661C16.8969 35.2837 16.6909 38.6494 16.4597 39.2001L38.5272 39.2308L38.2217 36.7447L38.0064 33.7168C37.9927 33.4699 37.9204 33.2389 37.9091 32.992L37.8884 19.9487C37.8888 19.2486 37.8409 18.5109 37.94 17.8187C38.1962 16.0288 38.9682 14.0479 39.9534 12.5138C39.5536 12.3273 39.1842 12.1024 38.7724 11.933C37.6745 11.4813 36.3344 11.1691 35.1673 10.9591C35.08 11.1772 35.1103 11.5001 35.073 11.7417C34.7557 13.8029 33.1199 15.5785 31.2438 16.3816C29.8064 16.997 28.0893 17.1609 26.5291 17.0465C23.507 16.8248 20.3607 14.8554 19.9045 11.6571L19.8402 10.959ZM33.4377 11.1585C32.081 12.005 30.4859 12.4573 28.8894 12.5405L27.3426 12.546C24.9385 12.5441 23.5609 12.2307 21.4723 11.1813C21.494 11.5254 21.6105 11.8285 21.7197 12.1522L21.7571 12.2462C21.9132 12.634 22.1162 12.9175 22.3318 13.2655C23.7552 14.9423 25.4464 15.3904 27.5391 15.3895C30.1416 15.3884 33.1847 14.2496 33.4579 11.2813C33.4617 11.2398 33.4596 11.21 33.4486 11.1701L33.4377 11.1585ZM13.953 13.5065C13.4161 14.1884 12.8602 14.7833 12.2442 15.3978L8.19712 19.2262C7.10555 20.3078 6.44464 21.7296 7.23779 23.1934C7.52815 23.7293 7.94629 24.1764 8.2461 24.7083C8.54903 25.2456 8.81468 26.5222 9.29465 26.8576C10.2539 27.7805 11.6019 27.7231 12.68 26.9878L15.092 25.2452C15.7198 24.8189 15.6826 25.0719 15.683 24.3375L15.684 19.8465C15.6831 17.7589 15.6239 16.9527 14.6768 14.9329C14.4516 14.4528 14.2481 13.9491 13.953 13.5065ZM40.9769 13.5218C40.4258 14.4638 39.6362 16.249 39.4373 17.2927C39.2285 18.3879 39.2909 19.5092 39.2907 20.6202L39.2913 24.8217C39.3421 24.8817 39.9668 25.2342 40.0985 25.329L41.2838 26.2024C42.4354 27.0903 44.1059 28.2504 45.5163 27.0436L45.7549 26.8177C46.2519 26.2026 46.3759 25.4998 46.7212 24.8119C46.9793 24.2977 47.3458 23.8652 47.638 23.3755C48.6828 21.6243 47.843 20.2643 46.6026 19.0346L41.884 14.5274L40.9769 13.5218ZM16.0889 40.6458L15.7262 41.9086C16.0222 41.9793 16.3146 41.9954 16.6139 42.0367L21.471 42.5398L22.7724 42.5745C23.0391 42.5893 23.3004 42.6438 23.5657 42.6583L25.9462 42.7078L31.4408 42.656C31.7175 42.6449 31.9904 42.593 32.2669 42.5766L35.2288 42.3659C36.2566 42.2639 37.3007 42.2063 38.3208 42.0386L39.2623 41.8885L38.9509 40.6637L16.0889 40.6458Z" fill="currentColor" stroke="currentColor" stroke-width="2" mask="url(#path-1-inside-1_205_5096)"/>
</svg>