<svg xmlns="http://www.w3.org/2000/svg" width="50" height="50" viewBox="0 0 50 50" fill="none">
  <path d="M25 45.8334V4.16675M14.5834 45.8334V35.4168M14.5834 14.5834V4.16675M35.4167 45.8334V35.4168M35.4167 14.5834V4.16675M4.16669 14.5834H45.8334M4.16669 35.4168H45.8334M45.8334 35.8334V14.1667C45.8334 10.6664 45.8334 8.91626 45.1521 7.57931C44.5529 6.40329 43.5968 5.44717 42.4208 4.84796C41.0838 4.16675 39.3337 4.16675 35.8334 4.16675L14.1667 4.16675C10.6664 4.16675 8.91619 4.16675 7.57925 4.84796C6.40323 5.44717 5.4471 6.4033 4.8479 7.57931C4.16669 8.91626 4.16669 10.6664 4.16669 14.1668L4.16669 35.8334C4.16669 39.3337 4.16669 41.0839 4.8479 42.4209C5.44711 43.5969 6.40323 44.553 7.57925 45.1522C8.9162 45.8334 10.6664 45.8334 14.1667 45.8334H35.8334C39.3337 45.8334 41.0838 45.8334 42.4208 45.1522C43.5968 44.553 44.5529 43.5969 45.1521 42.4209C45.8334 41.0839 45.8334 39.3337 45.8334 35.8334Z" stroke="currentColor" stroke-width="2" stroke-linecap="round" stroke-linejoin="round"/>
</svg>