<svg xmlns="http://www.w3.org/2000/svg" width="50" height="50" viewBox="0 0 50 50" fill="none">
  <path d="M31.25 11.8201C36.177 14.1607 39.5834 19.1826 39.5834 25.0001M17.4842 37.5C13.2492 34.9481 10.4167 30.3048 10.4167 25M45.8334 25.0001C45.8334 36.506 36.506 45.8334 25 45.8334C13.4941 45.8334 4.16669 36.506 4.16669 25.0001C4.16669 13.4941 13.4941 4.16675 25 4.16675C36.506 4.16675 45.8334 13.4941 45.8334 25.0001ZM31.25 25.0001C31.25 28.4519 28.4518 31.2501 25 31.2501C21.5482 31.2501 18.75 28.4519 18.75 25.0001C18.75 21.5483 21.5482 18.7501 25 18.7501C28.4518 18.7501 31.25 21.5483 31.25 25.0001Z" stroke="currentColor" stroke-width="2" stroke-linecap="round" stroke-linejoin="round"/>
</svg>