<svg xmlns="http://www.w3.org/2000/svg" width="23" height="22" viewBox="0 0 23 22" fill="none">
  <path d="M12 13L8.99997 10M14.0103 2.5V1M17.9497 4.06066L19.0103 3M17.9497 12L19.0103 13.0607M10.0103 4.06066L8.94966 3M19.5103 8H21.0103M5.13134 19.8686L14.3686 10.6314C14.7646 10.2354 14.9626 10.0373 15.0368 9.80902C15.1021 9.60817 15.1021 9.39183 15.0368 9.19098C14.9626 8.96265 14.7646 8.76465 14.3686 8.36863L13.6313 7.63137C13.2353 7.23535 13.0373 7.03735 12.809 6.96316C12.6081 6.8979 12.3918 6.8979 12.191 6.96316C11.9626 7.03735 11.7646 7.23535 11.3686 7.63137L2.13134 16.8686C1.73532 17.2646 1.53732 17.4627 1.46313 17.691C1.39787 17.8918 1.39787 18.1082 1.46313 18.309C1.53732 18.5373 1.73533 18.7354 2.13134 19.1314L2.8686 19.8686C3.26462 20.2646 3.46263 20.4627 3.69095 20.5368C3.8918 20.6021 4.10814 20.6021 4.30899 20.5368C4.53732 20.4627 4.73533 20.2646 5.13134 19.8686Z" stroke="white" stroke-width="2" stroke-linecap="round" stroke-linejoin="round"/>
</svg>