<svg xmlns="http://www.w3.org/2000/svg" width="22" height="22" viewBox="0 0 22 22" fill="none">
  <path d="M2.29163 19.7083L7.37846 17.7519C7.70382 17.6267 7.8665 17.5641 8.0187 17.4824C8.15389 17.4099 8.28278 17.3261 8.404 17.2321C8.54047 17.1262 8.66372 17.0029 8.91022 16.7564L19.25 6.41666C20.2625 5.40414 20.2625 3.76252 19.25 2.74999C18.2375 1.73747 16.5958 1.73747 15.5833 2.74999L5.24355 13.0897C4.99705 13.3362 4.87381 13.4595 4.7679 13.596C4.67383 13.7172 4.59008 13.8461 4.51751 13.9813C4.43581 14.1335 4.37324 14.2961 4.2481 14.6215L2.29163 19.7083ZM2.29163 19.7083L4.17824 14.8032C4.31324 14.4522 4.38074 14.2767 4.49652 14.1963C4.5977 14.126 4.7229 14.0995 4.8439 14.1226C4.98235 14.149 5.11531 14.282 5.38124 14.5479L7.45207 16.6187C7.71799 16.8847 7.85095 17.0176 7.87739 17.1561C7.9005 17.2771 7.87393 17.4023 7.80368 17.5035C7.72329 17.6192 7.54778 17.6867 7.19677 17.8217L2.29163 19.7083Z" stroke="black" stroke-width="2" stroke-linecap="round" stroke-linejoin="round"/>
</svg>