<svg xmlns="http://www.w3.org/2000/svg" width="30" height="28" viewBox="0 0 30 28" fill="none">
  <path d="M5.65164 18.9189H7.39808V20.2461C7.39808 22.127 8.45909 23.1113 10.4966 23.1113H24.2522C26.2897 23.1113 27.3507 22.127 27.3507 20.2461V12.125C27.3507 10.2441 26.2897 9.25977 24.2522 9.25977H23.1067C22.8625 9.25977 22.6654 9.25098 22.5057 9.22461V7.08887C22.5057 5.20801 21.4447 4.22363 19.4166 4.22363H5.65164C3.61412 4.22363 2.5625 5.20801 2.5625 7.08887V16.0537C2.5625 17.9434 3.61412 18.9189 5.65164 18.9189ZM5.7737 17.1699C4.90987 17.1699 4.431 16.748 4.431 15.8955V7.24707C4.431 6.39453 4.90987 5.98145 5.7737 5.98145H19.2945C20.149 5.98145 20.6372 6.39453 20.6372 7.24707V7.80957C20.2523 7.56348 19.8391 7.44043 19.2758 7.44043H15.473C14.7125 7.44043 14.2148 7.66016 13.7078 8.13477L12.9942 8.79395C12.5717 9.18066 12.3463 9.25977 11.6421 9.25977H10.4966C8.45909 9.25977 7.39808 10.2441 7.39808 12.125V17.1699H5.7737ZM10.6187 21.3535C9.74544 21.3535 9.27597 20.9316 9.27597 20.0879V12.2832C9.27597 11.4307 9.74544 11.0176 10.6187 11.0176H12.1491C12.9285 11.0176 13.4261 10.8682 13.8862 10.4287L14.7782 9.61133C15.1256 9.30371 15.3979 9.19824 15.9331 9.19824H18.8157C19.3509 9.19824 19.6232 9.30371 19.98 9.61133L20.8626 10.4287C21.3227 10.8682 21.8203 11.0176 22.609 11.0176H24.1301C25.0033 11.0176 25.4728 11.4307 25.4728 12.2832V20.0879C25.4728 20.9316 25.0033 21.3535 24.1301 21.3535H10.6187ZM17.3791 20.2285C19.8297 20.2285 21.8203 18.3652 21.8203 16.0625C21.8203 13.7686 19.8297 11.9141 17.3791 11.9141C14.9284 11.9141 12.9379 13.7686 12.9379 16.0625C12.9379 18.3652 14.9284 20.2285 17.3791 20.2285ZM23.0128 14.1377C23.6043 14.1377 24.0832 13.6982 24.0832 13.1445C24.0832 12.5908 23.6043 12.1426 23.0128 12.1426C22.4212 12.1426 21.9518 12.5908 21.9518 13.1445C21.9518 13.6982 22.4212 14.1377 23.0128 14.1377ZM17.3791 18.708C15.8204 18.708 14.5622 17.5215 14.5622 16.0625C14.5622 14.6123 15.8204 13.4258 17.3791 13.4258C18.9377 13.4258 20.1959 14.6123 20.1959 16.0625C20.1959 17.5215 18.9377 18.708 17.3791 18.708Z" fill="#BBBBBB"/>
</svg>