<svg xmlns="http://www.w3.org/2000/svg" width="30" height="28" viewBox="0 0 30 28" fill="none">
  <path d="M5.65139 18.9189H7.39783V20.2461C7.39783 22.127 8.45884 23.1113 10.4964 23.1113H24.2519C26.2894 23.1113 27.3505 22.127 27.3505 20.2461V12.125C27.3505 10.2441 26.2894 9.25977 24.2519 9.25977H23.1064C22.8623 9.25977 22.6651 9.25098 22.5055 9.22461V7.08887C22.5055 5.20801 21.4445 4.22363 19.4164 4.22363H5.65139C3.61388 4.22363 2.56226 5.20801 2.56226 7.08887V16.0537C2.56226 17.9434 3.61388 18.9189 5.65139 18.9189ZM5.77345 17.1699C4.90962 17.1699 4.43076 16.748 4.43076 15.8955V7.24707C4.43076 6.39453 4.90962 5.98145 5.77345 5.98145H19.2943C20.1487 5.98145 20.637 6.39453 20.637 7.24707V7.80957C20.252 7.56348 19.8389 7.44043 19.2755 7.44043H15.4728C14.7122 7.44043 14.2146 7.66016 13.7076 8.13477L12.994 8.79395C12.5714 9.18066 12.3461 9.25977 11.6419 9.25977H10.4964C8.45884 9.25977 7.39783 10.2441 7.39783 12.125V17.1699H5.77345ZM10.6184 21.3535C9.7452 21.3535 9.27573 20.9316 9.27573 20.0879V12.2832C9.27573 11.4307 9.7452 11.0176 10.6184 11.0176H12.1489C12.9282 11.0176 13.4259 10.8682 13.886 10.4287L14.778 9.61133C15.1254 9.30371 15.3977 9.19824 15.9329 9.19824H18.8154C19.3506 9.19824 19.6229 9.30371 19.9797 9.61133L20.8623 10.4287C21.3224 10.8682 21.8201 11.0176 22.6088 11.0176H24.1299C25.0031 11.0176 25.4726 11.4307 25.4726 12.2832V20.0879C25.4726 20.9316 25.0031 21.3535 24.1299 21.3535H10.6184ZM17.3788 20.2285C19.8295 20.2285 21.8201 18.3652 21.8201 16.0625C21.8201 13.7686 19.8295 11.9141 17.3788 11.9141C14.9282 11.9141 12.9376 13.7686 12.9376 16.0625C12.9376 18.3652 14.9282 20.2285 17.3788 20.2285ZM23.0125 14.1377C23.6041 14.1377 24.0829 13.6982 24.0829 13.1445C24.0829 12.5908 23.6041 12.1426 23.0125 12.1426C22.421 12.1426 21.9515 12.5908 21.9515 13.1445C21.9515 13.6982 22.421 14.1377 23.0125 14.1377ZM17.3788 18.708C15.8202 18.708 14.562 17.5215 14.562 16.0625C14.562 14.6123 15.8202 13.4258 17.3788 13.4258C18.9375 13.4258 20.1957 14.6123 20.1957 16.0625C20.1957 17.5215 18.9375 18.708 17.3788 18.708Z" fill="white"/>
</svg>