<svg xmlns="http://www.w3.org/2000/svg" width="30" height="30" viewBox="0 0 30 30" fill="none">
  <path fill-rule="evenodd" clip-rule="evenodd" d="M4.75 12.5C4.75 8.21979 8.21979 4.75 12.5 4.75C16.7802 4.75 20.25 8.21979 20.25 12.5C20.25 16.7802 16.7802 20.25 12.5 20.25C8.21979 20.25 4.75 16.7802 4.75 12.5ZM12.5 2.75C7.11522 2.75 2.75 7.11522 2.75 12.5C2.75 17.8848 7.11522 22.25 12.5 22.25C14.8322 22.25 16.9732 21.4311 18.651 20.0653L25.5429 26.9571C25.9334 27.3476 26.5666 27.3476 26.9571 26.9571C27.3476 26.5666 27.3476 25.9334 26.9571 25.5429L20.0653 18.651C21.4311 16.9732 22.25 14.8322 22.25 12.5C22.25 7.11522 17.8848 2.75 12.5 2.75Z" fill="white"/>
</svg>