<svg xmlns="http://www.w3.org/2000/svg" width="21" height="20" viewBox="0 0 21 20" fill="none">
  <path d="M10.5 10L6.76122 7.03272C6.20573 6.59185 5.92798 6.37141 5.72831 6.1012C5.55139 5.86177 5.42 5.59461 5.34014 5.3119C5.25 4.99282 5.25 4.64849 5.25 3.95983V1.66666M10.5 10L14.2388 7.03272C14.7943 6.59185 15.072 6.37141 15.2717 6.1012C15.4486 5.86177 15.58 5.59461 15.6599 5.3119C15.75 4.99282 15.75 4.64849 15.75 3.95983V1.66666M10.5 10L6.76123 12.9673C6.20573 13.4081 5.92798 13.6286 5.72831 13.8988C5.55139 14.1382 5.42 14.4054 5.34014 14.6881C5.25 15.0072 5.25 15.3515 5.25 16.0402V18.3333M10.5 10L14.2388 12.9673C14.7943 13.4081 15.072 13.6286 15.2717 13.8988C15.4486 14.1382 15.58 14.4054 15.6599 14.6881C15.75 15.0072 15.75 15.3515 15.75 16.0402V18.3333M3.5 1.66666H17.5M3.5 18.3333H17.5" stroke="black" stroke-width="2" stroke-linecap="round" stroke-linejoin="round"/>
</svg>