<svg width="261" height="31" viewBox="0 0 261 31" fill="none" xmlns="http://www.w3.org/2000/svg">
<path d="M3.10938 19.4531C3.68229 16.9792 3.96875 14.6484 3.96875 12.4609C3.96875 10.8984 3.77344 9.25781 3.38281 7.53906C3.22656 6.88802 2.74479 5.8724 1.9375 4.49219C1.52083 3.73698 1.3125 3.16406 1.3125 2.77344C1.3125 1.8099 2.43229 1.13281 4.67188 0.742188C5.53125 0.585938 6.45573 0.507812 7.44531 0.507812C10.7266 0.533854 12.7578 1.3151 13.5391 2.85156C13.6172 2.98177 13.8516 3.77604 14.2422 5.23438C15.8568 11.0677 16.9635 13.9974 17.5625 14.0234C17.901 14.0234 18.0964 13.2943 18.1484 11.8359C18.1484 11.8099 18.1484 11.7839 18.1484 11.7578C18.1484 9.85677 18.0443 8.47656 17.8359 7.61719C17.6797 6.91406 17.1979 5.8724 16.3906 4.49219C15.9479 3.73698 15.7266 3.16406 15.7266 2.77344C15.7266 1.78385 16.8464 1.10677 19.0859 0.742188C19.9714 0.585938 20.8828 0.507812 21.8203 0.507812C24.5286 0.507812 26.3906 0.9375 27.4062 1.79688C27.7188 2.10938 27.888 2.4349 27.9141 2.77344C27.9141 3.1901 27.5755 3.95833 26.8984 5.07812C26.3516 6.04167 26 6.86198 25.8438 7.53906C25.6094 8.60677 25.4922 9.9349 25.4922 11.5234C25.4922 14.7266 25.7786 17.7344 26.3516 20.5469C26.6641 22.0312 27.3542 23.763 28.4219 25.7422C28.9167 26.6536 29.1641 27.3307 29.1641 27.7734C29.1641 29.1536 27.4714 30 24.0859 30.3125C23.3568 30.3646 22.6016 30.3906 21.8203 30.3906C17.8099 30.3646 15.7917 29.4922 15.7656 27.7734C15.7656 25.5859 15.2057 22.5911 14.0859 18.7891C13.0703 15.3776 12.237 13.6719 11.5859 13.6719C11.3255 13.724 11.1953 14.2448 11.1953 15.2344C11.1953 16.4844 11.3385 18.1901 11.625 20.3516C11.8333 21.862 12.3281 23.75 13.1094 26.0156C13.3698 26.7708 13.5 27.3568 13.5 27.7734C13.4479 29.5182 11.4297 30.3906 7.44531 30.3906C2.70573 30.3646 0.322917 29.1146 0.296875 26.6406C0.296875 25.651 0.726562 24.388 1.58594 22.8516C2.39323 21.4453 2.90104 20.3125 3.10938 19.4531ZM50.7266 1.79688C50.3099 1.82292 50.0885 1.97917 50.0625 2.26562C50.0625 2.63021 50.349 2.92969 50.9219 3.16406C51.1562 3.26823 51.3776 3.32031 51.5859 3.32031C52.0026 3.29427 52.224 3.13802 52.25 2.85156C52.25 2.48698 51.9635 2.1875 51.3906 1.95312C51.1562 1.84896 50.9349 1.79688 50.7266 1.79688ZM33.6172 19.0625C34.2161 16.6667 34.5156 14.1276 34.5156 11.4453C34.5156 9.96094 34.3854 8.65885 34.125 7.53906C33.9688 6.83594 33.487 5.82031 32.6797 4.49219C32.263 3.78906 32.0547 3.25521 32.0547 2.89062C32.0807 1.58854 34.125 0.9375 38.1875 0.9375H51.8203C52.7839 0.9375 53.6823 1.69271 54.5156 3.20312C55.2188 4.50521 55.5703 5.84635 55.5703 7.22656C55.5703 9.02344 55.1016 10.0651 54.1641 10.3516C54.0078 10.4036 53.8516 10.4297 53.6953 10.4297C52.9922 10.4297 52.2891 10 51.5859 9.14062C50.7526 8.125 50.1146 7.47396 49.6719 7.1875C48.7865 6.58854 47.7188 6.28906 46.4688 6.28906C44.8281 6.28906 43.513 6.91406 42.5234 8.16406C42.0286 8.78906 41.7812 9.38802 41.7812 9.96094C41.7812 10.7682 42.237 11.237 43.1484 11.3672C43.3047 11.3932 43.4609 11.4062 43.6172 11.4062C44.2161 11.4062 44.9583 11.0807 45.8438 10.4297C46.3125 10.0911 46.6641 9.92188 46.8984 9.92188C47.5495 9.92188 48.0182 10.5339 48.3047 11.7578C48.4089 12.2526 48.4609 12.7734 48.4609 13.3203C48.4609 14.9349 48.1224 16.0156 47.4453 16.5625C47.263 16.6927 47.0807 16.7578 46.8984 16.7578C46.6641 16.7578 46.2083 16.4974 45.5312 15.9766C44.8281 15.4818 44.1901 15.2344 43.6172 15.2344C42.6016 15.2604 42.0807 15.6901 42.0547 16.5234C42.0547 17.4609 42.5104 18.4115 43.4219 19.375C44.0469 19.9479 44.6198 20.2474 45.1406 20.2734C46.7292 20.2734 48.1094 19.6094 49.2812 18.2812C49.4115 18.151 49.5807 17.9427 49.7891 17.6562C50.6484 16.6667 51.3776 16.0677 51.9766 15.8594C52.237 15.7812 52.5104 15.7422 52.7969 15.7422C54.8021 15.7422 55.9479 16.901 56.2344 19.2188C56.2865 19.5833 56.3125 19.9609 56.3125 20.3516C56.3125 22.6953 55.6745 24.9349 54.3984 27.0703C53.2266 28.9974 51.9766 29.974 50.6484 30H37.9531C33.2135 29.974 30.8307 28.724 30.8047 26.25C30.8047 25.2604 31.2344 23.9974 32.0938 22.4609C32.901 21.0547 33.4089 19.9219 33.6172 19.0625ZM64.6719 2.57812C64.8281 2.91667 65.2188 3.125 65.8438 3.20312C66.5208 3.125 66.9115 2.91667 67.0156 2.57812C67.0156 2.26562 66.7422 2.04427 66.1953 1.91406C66.0651 1.88802 65.9479 1.875 65.8438 1.875C65.2188 1.875 64.8411 2.05729 64.7109 2.42188C64.6849 2.5 64.6719 2.55208 64.6719 2.57812ZM76.0391 2.77344C76.4036 1.73177 77.6667 1.02865 79.8281 0.664062C80.4792 0.559896 81.1172 0.507812 81.7422 0.507812C83.9036 0.507812 85.2448 0.911458 85.7656 1.71875C85.8958 1.92708 85.9609 2.1224 85.9609 2.30469C85.9609 2.35677 85.9219 2.51302 85.8438 2.77344C85.7135 3.1901 85.1146 3.97135 84.0469 5.11719C83.1615 6.08073 82.5104 6.91406 82.0938 7.61719C80.8438 9.80469 79.5807 13.4115 78.3047 18.4375C78.1224 19.1667 77.9792 19.8047 77.875 20.3516C77.6406 21.5234 77.5234 23.0599 77.5234 24.9609C77.5234 26.8359 77.3281 28.099 76.9375 28.75C76.2083 29.8698 74.4766 30.4297 71.7422 30.4297C68.513 30.4297 66.4297 29.8307 65.4922 28.6328C64.8932 27.8776 64.4896 26.4323 64.2812 24.2969C64.0729 22.3177 63.9167 21.0026 63.8125 20.3516C63.2917 16.862 62.4714 13.4635 61.3516 10.1562C60.987 9.08854 60.6354 8.24219 60.2969 7.61719C59.9323 6.9401 59.138 5.89844 57.9141 4.49219C57.2891 3.76302 56.9115 3.1901 56.7812 2.77344C56.7552 2.66927 56.7422 2.5651 56.7422 2.46094C56.7422 1.54948 57.9401 0.9375 60.3359 0.625C61.0651 0.546875 61.8203 0.507812 62.6016 0.507812C65.3359 0.507812 67.3281 0.950521 68.5781 1.83594C68.9948 2.1224 69.2552 2.4349 69.3594 2.77344C69.4115 2.98177 69.4375 3.16406 69.4375 3.32031C69.4375 3.52865 69.2812 4.24479 68.9688 5.46875C68.7865 6.09375 68.6953 6.66667 68.6953 7.1875C68.6953 8.17708 68.9688 9.6224 69.5156 11.5234C69.6979 12.1224 69.9583 13.112 70.2969 14.4922C71.1562 17.8255 71.7943 19.6094 72.2109 19.8438C72.263 19.8698 72.3021 19.8828 72.3281 19.8828C72.7708 19.8828 73.4479 18.3073 74.3594 15.1562C74.9062 13.2552 75.2708 12.0443 75.4531 11.5234C76.0781 9.49219 76.4297 8.22917 76.5078 7.73438C76.5339 7.44792 76.5469 7.17448 76.5469 6.91406C76.5469 6.4974 76.3906 5.65104 76.0781 4.375C76 3.98438 75.9609 3.67188 75.9609 3.4375C75.9609 3.15104 75.987 2.92969 76.0391 2.77344ZM80.9219 2.57812C81.0781 2.91667 81.4688 3.125 82.0938 3.20312C82.7708 3.125 83.1615 2.91667 83.2656 2.57812C83.2656 2.26562 82.9922 2.04427 82.4453 1.91406C82.3151 1.88802 82.1979 1.875 82.0938 1.875C81.4688 1.875 81.0911 2.05729 80.9609 2.42188C80.9349 2.5 80.9219 2.55208 80.9219 2.57812ZM106.117 1.79688C105.701 1.82292 105.479 1.97917 105.453 2.26562C105.453 2.63021 105.74 2.92969 106.312 3.16406C106.547 3.26823 106.768 3.32031 106.977 3.32031C107.393 3.29427 107.615 3.13802 107.641 2.85156C107.641 2.48698 107.354 2.1875 106.781 1.95312C106.547 1.84896 106.326 1.79688 106.117 1.79688ZM89.0078 19.0625C89.6068 16.6667 89.9062 14.1276 89.9062 11.4453C89.9062 9.96094 89.776 8.65885 89.5156 7.53906C89.3594 6.83594 88.8776 5.82031 88.0703 4.49219C87.6536 3.78906 87.4453 3.25521 87.4453 2.89062C87.4714 1.58854 89.5156 0.9375 93.5781 0.9375H107.211C108.174 0.9375 109.073 1.69271 109.906 3.20312C110.609 4.50521 110.961 5.84635 110.961 7.22656C110.961 9.02344 110.492 10.0651 109.555 10.3516C109.398 10.4036 109.242 10.4297 109.086 10.4297C108.383 10.4297 107.68 10 106.977 9.14062C106.143 8.125 105.505 7.47396 105.062 7.1875C104.177 6.58854 103.109 6.28906 101.859 6.28906C100.219 6.28906 98.9036 6.91406 97.9141 8.16406C97.4193 8.78906 97.1719 9.38802 97.1719 9.96094C97.1719 10.7682 97.6276 11.237 98.5391 11.3672C98.6953 11.3932 98.8516 11.4062 99.0078 11.4062C99.6068 11.4062 100.349 11.0807 101.234 10.4297C101.703 10.0911 102.055 9.92188 102.289 9.92188C102.94 9.92188 103.409 10.5339 103.695 11.7578C103.799 12.2526 103.852 12.7734 103.852 13.3203C103.852 14.9349 103.513 16.0156 102.836 16.5625C102.654 16.6927 102.471 16.7578 102.289 16.7578C102.055 16.7578 101.599 16.4974 100.922 15.9766C100.219 15.4818 99.5807 15.2344 99.0078 15.2344C97.9922 15.2604 97.4714 15.6901 97.4453 16.5234C97.4453 17.4609 97.901 18.4115 98.8125 19.375C99.4375 19.9479 100.01 20.2474 100.531 20.2734C102.12 20.2734 103.5 19.6094 104.672 18.2812C104.802 18.151 104.971 17.9427 105.18 17.6562C106.039 16.6667 106.768 16.0677 107.367 15.8594C107.628 15.7812 107.901 15.7422 108.188 15.7422C110.193 15.7422 111.339 16.901 111.625 19.2188C111.677 19.5833 111.703 19.9609 111.703 20.3516C111.703 22.6953 111.065 24.9349 109.789 27.0703C108.617 28.9974 107.367 29.974 106.039 30H93.3438C88.6042 29.974 86.2214 28.724 86.1953 26.25C86.1953 25.2604 86.625 23.9974 87.4844 22.4609C88.2917 21.0547 88.7995 19.9219 89.0078 19.0625ZM131.469 2.1875C131.052 2.21354 130.831 2.38281 130.805 2.69531C130.805 3.0599 131.091 3.34635 131.664 3.55469C131.898 3.65885 132.12 3.71094 132.328 3.71094C132.745 3.6849 132.966 3.52865 132.992 3.24219C132.992 2.8776 132.706 2.57812 132.133 2.34375C131.898 2.23958 131.677 2.1875 131.469 2.1875ZM130.727 9.10156C130.727 8.13802 130.258 7.35677 129.32 6.75781C128.799 6.41927 128.253 6.25 127.68 6.25C126.091 6.25 125.062 6.78385 124.594 7.85156C124.49 8.13802 124.438 8.41146 124.438 8.67188C124.438 9.6875 125.076 10.4167 126.352 10.8594C126.872 11.0156 127.393 11.0938 127.914 11.0938C129.268 11.0938 130.154 10.6771 130.57 9.84375C130.674 9.60938 130.727 9.36198 130.727 9.10156ZM116.312 19.4531C116.885 16.9792 117.172 14.7005 117.172 12.6172C117.172 11.0026 116.977 9.3099 116.586 7.53906C116.43 6.88802 115.948 5.8724 115.141 4.49219C114.724 3.73698 114.516 3.16406 114.516 2.77344C114.516 1.8099 115.635 1.13281 117.875 0.742188C118.734 0.585938 119.659 0.507812 120.648 0.507812H127.68C132.393 0.507812 135.583 1.83594 137.25 4.49219C137.901 5.53385 138.227 6.6276 138.227 7.77344C138.227 9.90885 137.289 11.5755 135.414 12.7734C135.023 13.0599 134.815 13.2292 134.789 13.2812C134.789 13.4115 135.154 13.9193 135.883 14.8047C137.315 16.6276 138.435 18.5807 139.242 20.6641C139.503 21.3411 140.141 22.0443 141.156 22.7734C142.146 23.4505 142.784 24.0625 143.07 24.6094C143.305 25.1042 143.422 25.6771 143.422 26.3281C143.422 28.4635 142.211 29.7526 139.789 30.1953C138.982 30.3255 138.005 30.3906 136.859 30.3906C133.5 30.3906 131.378 29.8568 130.492 28.7891C130.049 28.2161 129.828 27.474 129.828 26.5625C129.776 22.0833 129.294 18.8021 128.383 16.7188C127.888 15.651 127.328 15.1042 126.703 15.0781C125.974 15.0781 125.388 15.5469 124.945 16.4844C124.711 17.0052 124.594 17.5651 124.594 18.1641C124.594 18.9714 124.672 19.7005 124.828 20.3516C125.115 21.5234 125.505 22.9167 126 24.5312C126.469 26.1198 126.703 27.2005 126.703 27.7734C126.651 29.5182 124.633 30.3906 120.648 30.3906C115.935 30.3646 113.565 29.1016 113.539 26.6016C113.539 25.612 113.969 24.362 114.828 22.8516C115.609 21.4453 116.104 20.3125 116.312 19.4531ZM147.68 19.0625C148.279 16.6667 148.578 14.1276 148.578 11.4453C148.578 9.96094 148.448 8.65885 148.188 7.53906C148.031 6.83594 147.549 5.82031 146.742 4.49219C146.326 3.78906 146.117 3.25521 146.117 2.89062C146.117 1.82292 147.276 1.09375 149.594 0.703125C150.427 0.572917 151.312 0.507812 152.25 0.507812C154.984 0.507812 156.859 0.950521 157.875 1.83594C158.188 2.17448 158.357 2.52604 158.383 2.89062C158.383 3.25521 158.057 3.97135 157.406 5.03906C156.807 6.02865 156.417 6.88802 156.234 7.61719C156.026 8.5026 155.922 9.88281 155.922 11.7578C155.922 15.2474 156.208 17.5651 156.781 18.7109C157.328 19.7266 158.135 20.2474 159.203 20.2734C160.792 20.2734 162.172 19.6094 163.344 18.2812C163.474 18.151 163.643 17.9427 163.852 17.6562C164.711 16.6667 165.44 16.0677 166.039 15.8594C166.299 15.7812 166.573 15.7422 166.859 15.7422C168.865 15.7422 170.01 16.901 170.297 19.2188C170.349 19.5833 170.375 19.9609 170.375 20.3516C170.375 22.6953 169.737 24.9349 168.461 27.0703C167.289 28.9974 166.039 29.974 164.711 30H152.016C147.276 29.974 144.893 28.724 144.867 26.25C144.867 25.2604 145.297 23.9974 146.156 22.4609C146.964 21.0547 147.471 19.9219 147.68 19.0625ZM184.242 14.2969C184.294 15.1562 184.633 15.599 185.258 15.625C186.039 15.5729 186.43 15.013 186.43 13.9453C186.378 11.5495 186.052 10.2995 185.453 10.1953C184.984 10.1953 184.633 10.8984 184.398 12.3047C184.294 12.9297 184.242 13.5938 184.242 14.2969ZM189.281 1.875C188.682 1.90104 188.37 2.08333 188.344 2.42188C188.344 2.76042 188.643 3.00781 189.242 3.16406C189.424 3.21615 189.594 3.24219 189.75 3.24219C190.323 3.21615 190.622 3.03385 190.648 2.69531C190.648 2.33073 190.349 2.07031 189.75 1.91406C189.594 1.88802 189.438 1.875 189.281 1.875ZM194.984 16.7969C195.74 19.0885 196.924 20.8724 198.539 22.1484C199.607 22.9818 200.219 23.5026 200.375 23.7109C200.922 24.388 201.195 25.2604 201.195 26.3281C201.195 28.3594 200.232 29.6094 198.305 30.0781C197.419 30.2865 196.104 30.3906 194.359 30.3906C191.026 30.3906 188.917 29.8568 188.031 28.7891C187.589 28.2161 187.367 27.474 187.367 26.5625C187.367 26.276 187.38 25.7422 187.406 24.9609C187.458 23.9453 187.484 23.2161 187.484 22.7734C187.484 21.0547 187.081 20.026 186.273 19.6875C185.961 19.5573 185.622 19.4922 185.258 19.4922C183.435 19.5182 182.523 21.0417 182.523 24.0625C182.523 24.2448 182.523 24.5312 182.523 24.9219C182.549 25.3125 182.562 25.599 182.562 25.7812C182.562 28.0208 181.664 29.4271 179.867 30C179.008 30.2604 177.888 30.3906 176.508 30.3906C173.773 30.3906 172.107 29.7266 171.508 28.3984C171.273 27.8776 171.156 27.2786 171.156 26.6016C171.156 25.4818 171.547 24.6615 172.328 24.1406C172.458 24.0625 172.68 23.9453 172.992 23.7891C174.216 23.112 175.128 22.3047 175.727 21.3672C175.909 21.0807 176.065 20.8073 176.195 20.5469C177.523 18.0208 178.76 15.013 179.906 11.5234C180.583 9.38802 180.922 7.85156 180.922 6.91406C180.922 6.10677 180.622 5.16927 180.023 4.10156C179.633 3.42448 179.438 2.8776 179.438 2.46094C179.438 1.57552 180.792 0.963542 183.5 0.625C184.333 0.520833 185.18 0.46875 186.039 0.46875C188.773 0.46875 190.805 0.885417 192.133 1.71875C192.628 2.03125 192.927 2.38281 193.031 2.77344C193.057 2.90365 193.07 3.08594 193.07 3.32031C193.07 8.47656 193.708 12.9688 194.984 16.7969ZM205.648 19.4531C206.221 16.9792 206.508 14.6484 206.508 12.4609C206.508 10.8984 206.312 9.25781 205.922 7.53906C205.766 6.88802 205.284 5.8724 204.477 4.49219C204.06 3.73698 203.852 3.16406 203.852 2.77344C203.852 1.8099 204.971 1.13281 207.211 0.742188C208.07 0.585938 208.995 0.507812 209.984 0.507812C213.266 0.533854 215.297 1.3151 216.078 2.85156C216.156 2.98177 216.391 3.77604 216.781 5.23438C218.396 11.0677 219.503 13.9974 220.102 14.0234C220.44 14.0234 220.635 13.2943 220.688 11.8359C220.688 11.8099 220.688 11.7839 220.688 11.7578C220.688 9.85677 220.583 8.47656 220.375 7.61719C220.219 6.91406 219.737 5.8724 218.93 4.49219C218.487 3.73698 218.266 3.16406 218.266 2.77344C218.266 1.78385 219.385 1.10677 221.625 0.742188C222.51 0.585938 223.422 0.507812 224.359 0.507812C227.068 0.507812 228.93 0.9375 229.945 1.79688C230.258 2.10938 230.427 2.4349 230.453 2.77344C230.453 3.1901 230.115 3.95833 229.438 5.07812C228.891 6.04167 228.539 6.86198 228.383 7.53906C228.148 8.60677 228.031 9.9349 228.031 11.5234C228.031 14.7266 228.318 17.7344 228.891 20.5469C229.203 22.0312 229.893 23.763 230.961 25.7422C231.456 26.6536 231.703 27.3307 231.703 27.7734C231.703 29.1536 230.01 30 226.625 30.3125C225.896 30.3646 225.141 30.3906 224.359 30.3906C220.349 30.3646 218.331 29.4922 218.305 27.7734C218.305 25.5859 217.745 22.5911 216.625 18.7891C215.609 15.3776 214.776 13.6719 214.125 13.6719C213.865 13.724 213.734 14.2448 213.734 15.2344C213.734 16.4844 213.878 18.1901 214.164 20.3516C214.372 21.862 214.867 23.75 215.648 26.0156C215.909 26.7708 216.039 27.3568 216.039 27.7734C215.987 29.5182 213.969 30.3906 209.984 30.3906C205.245 30.3646 202.862 29.1146 202.836 26.6406C202.836 25.651 203.266 24.388 204.125 22.8516C204.932 21.4453 205.44 20.3125 205.648 19.4531ZM244.242 12.2656V13.9453C244.242 17.5911 244.945 19.6615 246.352 20.1562C246.612 20.2344 246.872 20.2734 247.133 20.2734C249.19 20.2734 250.492 19.0755 251.039 16.6797C251.221 15.9505 251.312 15.1693 251.312 14.3359C251.312 11.862 250.766 9.76562 249.672 8.04688C248.891 6.875 248.044 6.27604 247.133 6.25C245.206 6.30208 244.242 8.30729 244.242 12.2656ZM249.984 2.1875C249.568 2.21354 249.346 2.38281 249.32 2.69531C249.32 3.0599 249.607 3.34635 250.18 3.55469C250.414 3.65885 250.635 3.71094 250.844 3.71094C251.26 3.6849 251.482 3.52865 251.508 3.24219C251.508 2.8776 251.221 2.57812 250.648 2.34375C250.414 2.23958 250.193 2.1875 249.984 2.1875ZM236.234 19.0625C236.755 16.875 237.016 14.6094 237.016 12.2656C237.016 10.6771 236.846 9.10156 236.508 7.53906C236.352 6.83594 235.87 5.82031 235.062 4.49219C234.646 3.78906 234.438 3.25521 234.438 2.89062C234.438 1.82292 235.596 1.09375 237.914 0.703125C238.747 0.572917 239.633 0.507812 240.57 0.507812H247.094C250.792 0.507812 253.956 2.09635 256.586 5.27344C259.008 8.1901 260.388 11.6406 260.727 15.625C260.779 16.1719 260.805 16.6927 260.805 17.1875C260.805 21.5625 259.372 24.8958 256.508 27.1875C254.138 29.0625 251.026 30 247.172 30H240.57C235.857 29.974 233.487 28.724 233.461 26.25C233.461 25.2604 233.891 23.9974 234.75 22.4609C235.531 21.0547 236.026 19.9219 236.234 19.0625Z" fill="white"/>
</svg>
