<svg width="134" height="25" viewBox="0 0 134 25" fill="none" xmlns="http://www.w3.org/2000/svg">
<path d="M25.8281 3.51562L20.6484 6L20.3203 22.2656L8.97656 9.04688L9.23438 18.0938L16.7344 20.8828L0.84375 20.8125L6.70312 18.1641V6.58594L1.03125 3.96094L10.7344 4.10156L18.375 13.5938L18.3047 6.35156L12 3.77344L25.8281 3.51562ZM35.7656 16.7344C35.7656 16.8438 35.7578 16.9531 35.7422 17.0625C35.7422 17.1719 35.7422 17.2812 35.7422 17.3906L26.2031 17.5781C26.4062 18.5 26.8672 19.1797 27.5859 19.6172C28.3047 20.0547 29.1172 20.2734 30.0234 20.2734C30.4609 20.2734 30.9062 20.2422 31.3594 20.1797C31.8125 20.1172 32.2578 20.0156 32.6953 19.875C33.1328 19.7344 33.5469 19.5547 33.9375 19.3359C34.3281 19.1016 34.6797 18.8281 34.9922 18.5156C34.8203 19.1719 34.5312 19.75 34.125 20.25C33.7188 20.75 33.2344 21.1641 32.6719 21.4922C32.125 21.8203 31.5234 22.0625 30.8672 22.2188C30.2266 22.3906 29.5859 22.4766 28.9453 22.4766C28.0703 22.4766 27.2344 22.3203 26.4375 22.0078C25.6562 21.6953 24.9688 21.2656 24.375 20.7188C23.7969 20.1719 23.3359 19.5156 22.9922 18.75C22.6484 17.9844 22.4766 17.1484 22.4766 16.2422C22.4766 15.2891 22.6719 14.4219 23.0625 13.6406C23.4531 12.8594 23.9688 12.1953 24.6094 11.6484C25.25 11.0859 25.9922 10.6562 26.8359 10.3594C27.6797 10.0625 28.5625 9.91406 29.4844 9.91406C30.4531 9.91406 31.3203 10.0938 32.0859 10.4531C32.8672 10.8125 33.5312 11.3047 34.0781 11.9297C34.625 12.5547 35.0391 13.2812 35.3203 14.1094C35.6172 14.9219 35.7656 15.7969 35.7656 16.7344ZM32.1797 15.5391C32.1484 15.1172 32.0625 14.7109 31.9219 14.3203C31.7812 13.9297 31.5859 13.5859 31.3359 13.2891C31.0859 12.9922 30.7812 12.7578 30.4219 12.5859C30.0781 12.3984 29.6719 12.3047 29.2031 12.3047C28.7344 12.3047 28.3281 12.3906 27.9844 12.5625C27.6406 12.7344 27.3516 12.9688 27.1172 13.2656C26.8828 13.5469 26.6875 13.8828 26.5312 14.2734C26.3906 14.6484 26.2812 15.0391 26.2031 15.4453L32.1797 15.5391ZM53.5078 10.4766L48.7031 12.4453L43.4297 22.9922L36.4922 10.8281L32.1562 9.63281L44.0391 7.75781L40.4062 10.2422L43.8516 17.2734L46.5234 12.1406L42.3984 9.65625L53.5078 10.4766ZM64.4062 16.7344C64.4062 16.8438 64.3984 16.9531 64.3828 17.0625C64.3828 17.1719 64.3828 17.2812 64.3828 17.3906L54.8438 17.5781C55.0469 18.5 55.5078 19.1797 56.2266 19.6172C56.9453 20.0547 57.7578 20.2734 58.6641 20.2734C59.1016 20.2734 59.5469 20.2422 60 20.1797C60.4531 20.1172 60.8984 20.0156 61.3359 19.875C61.7734 19.7344 62.1875 19.5547 62.5781 19.3359C62.9688 19.1016 63.3203 18.8281 63.6328 18.5156C63.4609 19.1719 63.1719 19.75 62.7656 20.25C62.3594 20.75 61.875 21.1641 61.3125 21.4922C60.7656 21.8203 60.1641 22.0625 59.5078 22.2188C58.8672 22.3906 58.2266 22.4766 57.5859 22.4766C56.7109 22.4766 55.875 22.3203 55.0781 22.0078C54.2969 21.6953 53.6094 21.2656 53.0156 20.7188C52.4375 20.1719 51.9766 19.5156 51.6328 18.75C51.2891 17.9844 51.1172 17.1484 51.1172 16.2422C51.1172 15.2891 51.3125 14.4219 51.7031 13.6406C52.0938 12.8594 52.6094 12.1953 53.25 11.6484C53.8906 11.0859 54.6328 10.6562 55.4766 10.3594C56.3203 10.0625 57.2031 9.91406 58.125 9.91406C59.0938 9.91406 59.9609 10.0938 60.7266 10.4531C61.5078 10.8125 62.1719 11.3047 62.7188 11.9297C63.2656 12.5547 63.6797 13.2812 63.9609 14.1094C64.2578 14.9219 64.4062 15.7969 64.4062 16.7344ZM60.8203 15.5391C60.7891 15.1172 60.7031 14.7109 60.5625 14.3203C60.4219 13.9297 60.2266 13.5859 59.9766 13.2891C59.7266 12.9922 59.4219 12.7578 59.0625 12.5859C58.7188 12.3984 58.3125 12.3047 57.8438 12.3047C57.375 12.3047 56.9688 12.3906 56.625 12.5625C56.2812 12.7344 55.9922 12.9688 55.7578 13.2656C55.5234 13.5469 55.3281 13.8828 55.1719 14.2734C55.0312 14.6484 54.9219 15.0391 54.8438 15.4453L60.8203 15.5391ZM77.9766 9.5625C77.9766 10.2031 77.7812 10.7344 77.3906 11.1562C77 11.5625 76.4766 11.7656 75.8203 11.7656C75.3359 11.7656 74.9609 11.6797 74.6953 11.5078C74.4297 11.3203 74.2031 11.1172 74.0156 10.8984C73.8438 10.6641 73.6641 10.4609 73.4766 10.2891C73.3047 10.1016 73.0547 10.0078 72.7266 10.0078C72.1484 10.0078 71.6875 10.1953 71.3438 10.5703C71 10.9297 70.7422 11.3594 70.5703 11.8594C70.5547 11.8906 70.5391 12.0391 70.5234 12.3047C70.5234 12.5703 70.5156 12.9062 70.5 13.3125C70.4844 13.7188 70.4688 14.1641 70.4531 14.6484C70.4375 15.1328 70.4219 15.5938 70.4062 16.0312C70.3906 16.4688 70.375 16.8594 70.3594 17.2031C70.3438 17.5312 70.3359 17.75 70.3359 17.8594L76.0312 19.9219L62.4844 21.3047C63.2969 20.7891 64.1094 20.2812 64.9219 19.7812C65.7344 19.2656 66.5469 18.7578 67.3594 18.2578L66.4922 10.0781L61.2656 8.67188L70.7109 6.60938L70.6641 8.76562C71.3203 8.3125 71.9922 7.92969 72.6797 7.61719C73.3828 7.28906 74.1562 7.125 75 7.125C75.2812 7.125 75.5703 7.15625 75.8672 7.21875C76.1641 7.28125 76.4453 7.375 76.7109 7.5C76.9766 7.625 77.2109 7.79687 77.4141 8.01562C77.6172 8.21875 77.7656 8.46875 77.8594 8.76562C77.9375 9.04688 77.9766 9.3125 77.9766 9.5625ZM87.0703 22.4297L76.4062 22.8281L80.4141 20.2734L79.6406 2.55469L74.1328 0.515625L84.0469 0.398438L83.3438 20.1562L87.0703 22.4297ZM100.547 21.2344L93.1172 21.5391L93.2812 20.2266C92.7812 20.2891 92.2812 20.3281 91.7812 20.3438C91.2812 20.3438 90.7812 20.3438 90.2812 20.3438C89.8281 20.3438 89.3281 20.2891 88.7812 20.1797C88.2344 20.0703 87.7266 19.8984 87.2578 19.6641C86.7891 19.4141 86.3984 19.0938 86.0859 18.7031C85.7734 18.3125 85.6172 17.8359 85.6172 17.2734C85.6172 16.6484 85.7656 16.1172 86.0625 15.6797C86.3594 15.2422 86.7344 14.8906 87.1875 14.625C87.6562 14.3594 88.1719 14.1641 88.7344 14.0391C89.2969 13.9141 89.8438 13.8516 90.375 13.8516C91.0312 13.8516 91.6719 13.8828 92.2969 13.9453C92.9219 14.0078 93.5547 14.0625 94.1953 14.1094C94.2266 13.9062 94.25 13.7031 94.2656 13.5C94.2812 13.2812 94.2891 13.0625 94.2891 12.8438C94.2891 12.4219 94.25 12.0078 94.1719 11.6016C94.1094 11.1953 93.9844 10.8359 93.7969 10.5234C93.625 10.1953 93.375 9.9375 93.0469 9.75C92.7344 9.5625 92.3281 9.46875 91.8281 9.46875C91.3594 9.46875 90.9297 9.54688 90.5391 9.70312C90.1641 9.84375 89.8281 10.0938 89.5312 10.4531C89.75 10.625 89.8984 10.8203 89.9766 11.0391C90.0547 11.2422 90.0938 11.4766 90.0938 11.7422V11.8828C89.8594 12.9766 89.1719 13.5234 88.0312 13.5234C87.5156 13.5234 87.0938 13.3438 86.7656 12.9844C86.4375 12.6094 86.2734 12.1719 86.2734 11.6719C86.2734 10.9844 86.4688 10.3906 86.8594 9.89062C87.25 9.39062 87.7266 8.97656 88.2891 8.64844C88.8672 8.32031 89.4844 8.07812 90.1406 7.92188C90.8125 7.76563 91.4297 7.6875 91.9922 7.6875C93.7891 7.6875 95.1875 8.10156 96.1875 8.92969C97.2031 9.75781 97.7109 11.1094 97.7109 12.9844C97.7109 13.1875 97.7031 13.3906 97.6875 13.5938C97.6875 13.7969 97.6797 14 97.6641 14.2031L97.1016 19.5938C97.6953 19.8594 98.2734 20.1328 98.8359 20.4141C99.3984 20.6953 99.9688 20.9688 100.547 21.2344ZM93.9375 15.6797C93.5312 15.6328 93.125 15.5859 92.7188 15.5391C92.3125 15.4766 91.9062 15.4453 91.5 15.4453C91.2344 15.4453 90.9688 15.4766 90.7031 15.5391C90.4531 15.5859 90.2188 15.6719 90 15.7969C89.7969 15.9219 89.6328 16.0938 89.5078 16.3125C89.3828 16.5156 89.3203 16.7734 89.3203 17.0859C89.3203 17.3203 89.375 17.5312 89.4844 17.7188C89.5938 17.8906 89.7344 18.0391 89.9062 18.1641C90.0938 18.2891 90.2891 18.3828 90.4922 18.4453C90.7109 18.5078 90.9219 18.5391 91.125 18.5391C91.5312 18.5391 91.9375 18.5156 92.3438 18.4688C92.7656 18.4219 93.1719 18.375 93.5625 18.3281L93.9375 15.6797ZM116.25 19.4531L106.078 19.5234L110.461 17.8359V13.6172C110.461 12.7891 110.25 12.1328 109.828 11.6484C109.422 11.1484 108.797 10.8984 107.953 10.8984C107.531 10.8984 107.078 10.9688 106.594 11.1094C106.125 11.25 105.773 11.5156 105.539 11.9062L105.023 16.4531C105.18 16.5781 105.422 16.7344 105.75 16.9219C106.094 17.1094 106.445 17.2969 106.805 17.4844C107.211 17.7031 107.648 17.9297 108.117 18.1641L98.4844 18.2109L102.422 16.5938L101.719 10.9453C101.266 10.8203 100.742 10.6797 100.148 10.5234C99.5547 10.3516 98.9844 10.1797 98.4375 10.0078C97.8125 9.82031 97.1641 9.625 96.4922 9.42188L105.797 7.875L105.68 9.30469C106.227 9.08594 106.812 8.86719 107.438 8.64844C108.062 8.42969 108.672 8.32031 109.266 8.32031C110.688 8.32031 111.789 8.70312 112.57 9.46875C113.352 10.2344 113.742 11.3359 113.742 12.7734C113.742 13.1328 113.719 13.5391 113.672 13.9922C113.641 14.4297 113.594 14.875 113.531 15.3281C113.469 15.7812 113.398 16.2344 113.32 16.6875C113.258 17.125 113.195 17.5312 113.133 17.9062L116.25 19.4531ZM133.875 23.8359L125.766 24.9609L125.883 22.9219C125.43 23.0312 124.969 23.1094 124.5 23.1562C124.031 23.2031 123.562 23.2266 123.094 23.2266C122.172 23.2266 121.242 23.1172 120.305 22.8984C119.383 22.6953 118.547 22.3594 117.797 21.8906C117.062 21.4219 116.461 20.8125 115.992 20.0625C115.523 19.3125 115.289 18.3984 115.289 17.3203C115.289 16.4453 115.477 15.6641 115.852 14.9766C116.227 14.2734 116.719 13.6797 117.328 13.1953C117.938 12.6953 118.625 12.3125 119.391 12.0469C120.172 11.7812 120.969 11.6484 121.781 11.6484C122.578 11.6484 123.375 11.7344 124.172 11.9062C124.984 12.0625 125.742 12.3047 126.445 12.6328L126.867 4.54688L121.688 2.08594L131.344 2.76562L128.812 22.6406L133.875 23.8359ZM126.305 14.8125C125.852 14.5 125.289 14.2734 124.617 14.1328C123.945 13.9922 123.336 13.9219 122.789 13.9219C122.227 13.9219 121.703 14.0156 121.219 14.2031C120.75 14.3906 120.344 14.6562 120 15C119.672 15.3438 119.414 15.7578 119.227 16.2422C119.039 16.7109 118.945 17.2266 118.945 17.7891C118.945 18.3984 119.094 18.9297 119.391 19.3828C119.688 19.8203 120.07 20.1875 120.539 20.4844C121.008 20.7656 121.523 20.9688 122.086 21.0938C122.648 21.2344 123.188 21.3047 123.703 21.3047C124.484 21.3047 125.258 21.1484 126.023 20.8359L126.305 14.8125Z" fill="white"/>
</svg>
