<svg width="127" height="22" viewBox="0 0 127 22" fill="none" xmlns="http://www.w3.org/2000/svg">
<path d="M4.81445 10.4453V17.8145C5.50716 18.0697 6.01758 18.4115 6.3457 18.8398L6.07227 21H0.589844L0.302734 18.8398C0.649089 18.4115 1.16406 18.0697 1.84766 17.8145V4.86719C1.08203 4.59375 0.548828 4.25195 0.248047 3.8418L0.521484 1.68164H6.29102L11.8691 12.5508C12.0788 12.9427 12.2793 13.403 12.4707 13.9316C12.6712 14.4512 12.8717 15.0345 13.0723 15.6816L13.2637 16.3516L13.5781 16.2422C13.3138 14.5833 13.1816 13.2207 13.1816 12.1543V4.89453C12.4889 4.63021 11.9785 4.2793 11.6504 3.8418L11.9238 1.68164H17.4062L17.6934 3.8418C17.347 4.2793 16.832 4.63021 16.1484 4.89453V21H11.7598L6.12695 10.0488C5.72591 9.29232 5.32487 8.23958 4.92383 6.89062L4.73242 6.24805L4.41797 6.35742C4.68229 8.01628 4.81445 9.37891 4.81445 10.4453ZM25.7871 21.2188C23.5449 21.2188 21.8587 20.6217 20.7285 19.4277C19.5983 18.2337 19.0332 16.4974 19.0332 14.2188C19.0332 12.8424 19.2292 11.6576 19.6211 10.6641C20.013 9.66146 20.5462 8.88672 21.2207 8.33984C22.5241 7.30078 24.0462 6.78125 25.7871 6.78125C26.9447 6.78125 27.9199 6.97266 28.7129 7.35547C29.515 7.72917 30.1211 8.36263 30.5312 9.25586C30.9505 10.14 31.1602 11.3477 31.1602 12.8789C31.1602 14.2279 30.4948 14.9023 29.1641 14.9023H23.0938C23.1667 16.0781 23.4674 16.9076 23.9961 17.3906C24.5339 17.8737 25.3815 18.1152 26.5391 18.1152C27.168 18.1152 27.7695 18.0423 28.3438 17.8965C28.9271 17.7415 29.3509 17.5911 29.6152 17.4453L30.0117 17.2266L30.8457 19.4551C30.7454 19.5736 30.5859 19.7376 30.3672 19.9473C30.2214 20.084 29.9251 20.2526 29.4785 20.4531C29.0319 20.6536 28.485 20.8314 27.8379 20.9863C27.1999 21.1413 26.5163 21.2188 25.7871 21.2188ZM23.1211 12.5781L27.5508 12.4004C27.5872 12.1725 27.6055 11.8581 27.6055 11.457C27.6055 11.0833 27.4551 10.6868 27.1543 10.2676C26.8535 9.84831 26.334 9.63867 25.5957 9.63867C24.8574 9.63867 24.2923 9.86198 23.9004 10.3086C23.5085 10.7552 23.2487 11.5117 23.1211 12.5781ZM46.2266 10.2539L41.6055 21.1641H38.5293L33.9355 10.2539C33.0059 9.95312 32.3815 9.58854 32.0625 9.16016L32.3359 7H38.7891L39.0625 9.16016C38.8073 9.46094 38.4062 9.72982 37.8594 9.9668L39.377 14.1914C39.541 14.638 39.6823 15.0801 39.8008 15.5176C39.9284 15.946 40.0286 16.3743 40.1016 16.8027L40.1562 17.1855H40.5527C40.7077 16.2467 40.9674 15.2669 41.332 14.2461L42.8086 10.1035C42.1341 9.84831 41.651 9.53385 41.3594 9.16016L41.6328 7H47.7988L48.0723 9.16016C47.735 9.58854 47.1198 9.95312 46.2266 10.2539ZM55.7285 21.2188C53.4863 21.2188 51.8001 20.6217 50.6699 19.4277C49.5397 18.2337 48.9746 16.4974 48.9746 14.2188C48.9746 12.8424 49.1706 11.6576 49.5625 10.6641C49.9544 9.66146 50.4876 8.88672 51.1621 8.33984C52.4655 7.30078 53.9876 6.78125 55.7285 6.78125C56.8861 6.78125 57.8613 6.97266 58.6543 7.35547C59.4564 7.72917 60.0625 8.36263 60.4727 9.25586C60.8919 10.14 61.1016 11.3477 61.1016 12.8789C61.1016 14.2279 60.4362 14.9023 59.1055 14.9023H53.0352C53.1081 16.0781 53.4089 16.9076 53.9375 17.3906C54.4753 17.8737 55.3229 18.1152 56.4805 18.1152C57.1094 18.1152 57.7109 18.0423 58.2852 17.8965C58.8685 17.7415 59.2923 17.5911 59.5566 17.4453L59.9531 17.2266L60.7871 19.4551C60.6868 19.5736 60.5273 19.7376 60.3086 19.9473C60.1628 20.084 59.8665 20.2526 59.4199 20.4531C58.9733 20.6536 58.4264 20.8314 57.7793 20.9863C57.1413 21.1413 56.4577 21.2188 55.7285 21.2188ZM53.0625 12.5781L57.4922 12.4004C57.5286 12.1725 57.5469 11.8581 57.5469 11.457C57.5469 11.0833 57.3965 10.6868 57.0957 10.2676C56.7949 9.84831 56.2754 9.63867 55.5371 9.63867C54.7988 9.63867 54.2337 9.86198 53.8418 10.3086C53.4499 10.7552 53.1901 11.5117 53.0625 12.5781ZM70.9316 10.4453C69.528 10.4453 68.5482 10.7142 67.9922 11.252V17.6641C69.5234 17.9557 70.5625 18.3477 71.1094 18.8398L70.8223 21H62.8105L62.5371 18.8398C62.7923 18.4844 63.3073 18.1699 64.082 17.8965V10.1035C63.4167 9.88477 62.9017 9.57031 62.5371 9.16016L62.8105 7C63.8132 6.77214 64.7383 6.6582 65.5859 6.6582C65.9961 6.6582 66.3698 6.66732 66.707 6.68555C67.0534 6.69466 67.3633 6.70833 67.6367 6.72656V8.49023C68.0651 7.97982 68.6165 7.56055 69.291 7.23242C69.8561 6.9681 70.4212 6.81315 70.9863 6.76758C71.5514 6.72201 71.9753 6.76302 72.2578 6.89062L72.1758 10.5273C71.8112 10.4727 71.3965 10.4453 70.9316 10.4453ZM73.0508 3.28125L73.3242 1.12109C74.3815 0.875 75.3568 0.751953 76.25 0.751953C77.1432 0.751953 77.8952 0.779297 78.5059 0.833984V17.8965C79.235 18.1699 79.75 18.4844 80.0508 18.8398L79.7773 21H73.3242L73.0508 18.8398C73.306 18.4844 73.821 18.1699 74.5957 17.8965V4.22461C73.9303 4.00586 73.4154 3.69141 73.0508 3.28125ZM81.7734 9.07812C81.7734 8.93229 81.7734 8.78646 81.7734 8.64062C81.7826 8.48568 81.7917 8.33073 81.8008 8.17578C83.5417 7.24609 85.4102 6.78125 87.4062 6.78125C89.4023 6.78125 90.8333 7.15951 91.6992 7.91602C92.5651 8.67253 92.998 9.92578 92.998 11.6758V17.6367C93.6452 17.7734 94.1602 17.9329 94.543 18.1152V20.5488C93.6133 20.9954 92.2507 21.2188 90.4551 21.2188C90.2637 20.7174 90.1042 20.1296 89.9766 19.4551C89.1745 20.6309 87.7207 21.2188 85.6152 21.2188C84.7858 21.2188 84.0247 21.0547 83.332 20.7266C82.6484 20.3984 82.1016 19.9336 81.6914 19.332C81.2812 18.7214 81.0762 17.9967 81.0762 17.1582C81.0762 15.9095 81.4909 14.9297 82.3203 14.2188C83.1497 13.4987 84.3848 13.1387 86.0254 13.1387H89.0879V11.7852C89.0879 10.3268 88.3132 9.59766 86.7637 9.59766C86.1621 9.59766 85.6836 9.6569 85.3281 9.77539C85.2826 10.5684 85.1732 11.1745 85 11.5938H82.252C81.9329 10.9284 81.7734 10.0898 81.7734 9.07812ZM86.8184 18.3613C87.7754 18.3613 88.5319 18.0833 89.0879 17.5273V15.2305H87.1191C85.7793 15.2305 85.1094 15.7454 85.1094 16.7754C85.1094 17.2402 85.2507 17.623 85.5332 17.9238C85.8249 18.2155 86.2533 18.3613 86.8184 18.3613ZM95.541 9.16016L95.8145 7C96.8171 6.77214 97.7422 6.6582 98.5898 6.6582C99 6.6582 99.3737 6.66732 99.7109 6.68555C100.057 6.69466 100.367 6.70833 100.641 6.72656V8.12109C101.105 7.72917 101.725 7.41016 102.5 7.16406C103.275 6.90885 104.018 6.78125 104.729 6.78125C105.95 6.78125 106.921 6.9681 107.641 7.3418C108.361 7.70638 108.88 8.30794 109.199 9.14648C109.518 9.98503 109.678 11.1061 109.678 12.5098V17.8965C110.407 18.1699 110.922 18.4844 111.223 18.8398L110.936 21H104.496L104.223 18.8398C104.478 18.4844 104.993 18.1699 105.768 17.8965V12.3457C105.768 11.334 105.604 10.6595 105.275 10.3223C105.02 10.0488 104.651 9.88477 104.168 9.83008C103.685 9.76628 103.161 9.80729 102.596 9.95312C102.031 10.099 101.497 10.3451 100.996 10.6914V17.8965C101.725 18.1699 102.24 18.4844 102.541 18.8398L102.268 21H95.8145L95.541 18.8398C95.7962 18.4844 96.3112 18.1699 97.0859 17.8965V10.1035C96.4206 9.88477 95.9056 9.57031 95.541 9.16016ZM119.193 3.28125L119.467 1.12109C120.533 0.875 121.554 0.751953 122.529 0.751953C123.495 0.751953 124.325 0.779297 125.018 0.833984V17.6367C125.592 17.737 126.107 17.8965 126.562 18.1152V20.3301C125.432 20.9225 124.01 21.2188 122.297 21.2188C122.115 21.1276 121.932 20.9635 121.75 20.7266C121.577 20.4805 121.481 20.2435 121.463 20.0156C121.053 20.3529 120.52 20.64 119.863 20.877C119.207 21.1048 118.564 21.2188 117.936 21.2188C115.921 21.2188 114.458 20.6764 113.547 19.5918C112.645 18.498 112.193 16.707 112.193 14.2188C112.193 11.4023 112.886 9.42448 114.271 8.28516C115.493 7.28255 116.983 6.78125 118.742 6.78125C119.508 6.78125 120.292 6.8724 121.094 7.05469V4.2793C120.246 4.05143 119.613 3.71875 119.193 3.28125ZM118.523 18.3613C119.599 18.3613 120.456 18.0469 121.094 17.418V9.91211C120.31 9.72982 119.499 9.63867 118.66 9.63867C117.803 9.63867 117.184 10.0124 116.801 10.7598C116.418 11.5072 116.227 12.6374 116.227 14.1504C116.227 15.6543 116.413 16.7344 116.787 17.3906C117.161 18.0378 117.74 18.3613 118.523 18.3613Z" fill="white"/>
</svg>
